<?xml version="1.0" standalone="no"?>
<!DOCTYPE svg PUBLIC "-//W3C//DTD SVG 20010904//EN"
 "http://www.w3.org/TR/2001/REC-SVG-20010904/DTD/svg10.dtd">
<svg version="1.0" xmlns="http://www.w3.org/2000/svg"
 width="700.000000pt" height="700.000000pt" viewBox="0 0 700.000000 700.000000"
 preserveAspectRatio="xMidYMid meet">
<metadata>
Created by potrace 1.11, written by Peter Selinger 2001-2013
</metadata>
<g transform="translate(0.000000,700.000000) scale(0.100000,-0.100000)"
fill="#000000" stroke="none">
<path d="M3235 6179 c-497 -51 -956 -231 -1365 -538 -149 -111 -400 -362 -511
-511 -364 -486 -549 -1036 -549 -1630 0 -594 185 -1144 549 -1630 111 -149
362 -400 511 -511 486 -364 1036 -549 1630 -549 594 0 1144 185 1630 549 149
111 400 362 511 511 364 486 549 1036 549 1630 0 594 -185 1144 -549 1630
-111 149 -362 400 -511 511 -415 311 -868 488 -1379 539 -118 12 -398 11 -516
-1z"/>
</g>
</svg>
