<?xml version="1.0" standalone="no"?>
<!DOCTYPE svg PUBLIC "-//W3C//DTD SVG 20010904//EN"
 "http://www.w3.org/TR/2001/REC-SVG-20010904/DTD/svg10.dtd">
<svg version="1.0" xmlns="http://www.w3.org/2000/svg"
 width="700.000000pt" height="700.000000pt" viewBox="0 0 700.000000 700.000000"
 preserveAspectRatio="xMidYMid meet">
<metadata>
Created by potrace 1.11, written by Peter Selinger 2001-2013
</metadata>
<g transform="translate(0.000000,700.000000) scale(0.100000,-0.100000)"
fill="#000000" stroke="none">
<path d="M3300 6184 c-19 -2 -78 -9 -130 -15 -569 -65 -1118 -328 -1544 -739
-385 -371 -662 -881 -765 -1405 -37 -194 -46 -287 -46 -525 0 -238 9 -331 46
-525 103 -524 380 -1034 765 -1405 427 -411 938 -657 1544 -741 126 -18 534
-18 660 0 606 84 1117 330 1544 741 385 371 662 881 765 1405 37 194 46 287
46 525 0 238 -9 331 -46 525 -103 524 -380 1034 -765 1405 -419 404 -921 649
-1509 736 -95 14 -490 27 -565 18z"/>
</g>
</svg>
